{
	"asset":{
		"generator":"Khronos glTF Blender I/O v4.2.70",
		"version":"2.0"
	},
	"extensionsUsed":[
		"KHR_materials_clearcoat"
	],
	"scene":0,
	"scenes":[
		{
			"name":"Scene",
			"nodes":[
				22,
				23
			]
		}
	],
	"nodes":[
		{
			"mesh":0,
			"name":"defaultMaterial.003",
			"rotation":[
				-0.70710688829422,
				0,
				0,
				0.7071066498756409
			]
		},
		{
			"mesh":1,
			"name":"defaultMaterial.056",
			"rotation":[
				-0.70710688829422,
				0,
				0,
				0.7071066498756409
			]
		},
		{
			"mesh":2,
			"name":"defaultMaterial.057",
			"rotation":[
				-0.70710688829422,
				0,
				0,
				0.7071066498756409
			]
		},
		{
			"mesh":3,
			"name":"defaultMaterial.058",
			"rotation":[
				-0.70710688829422,
				0,
				0,
				0.7071066498756409
			]
		},
		{
			"children":[
				0,
				1,
				2,
				3
			],
			"name":"Cube:003_Cube:009.004"
		},
		{
			"mesh":4,
			"name":"defaultMaterial.008",
			"rotation":[
				-0.70710688829422,
				0,
				0,
				0.7071066498756409
			]
		},
		{
			"children":[
				5
			],
			"name":"Cylinder:000_Cylinder:068.004"
		},
		{
			"mesh":5,
			"name":"defaultMaterial.007",
			"rotation":[
				-0.70710688829422,
				0,
				0,
				0.7071066498756409
			]
		},
		{
			"children":[
				7
			],
			"name":"Cylinder:002_Cylinder:069.004"
		},
		{
			"mesh":6,
			"name":"defaultMaterial.006",
			"rotation":[
				-0.70710688829422,
				0,
				0,
				0.7071066498756409
			]
		},
		{
			"children":[
				9
			],
			"name":"Cylinder:003_Cylinder:070.004"
		},
		{
			"mesh":7,
			"name":"defaultMaterial",
			"rotation":[
				-0.70710688829422,
				0,
				0,
				0.7071066498756409
			]
		},
		{
			"children":[
				11
			],
			"name":"Cylinder:006_Cylinder:001.004"
		},
		{
			"name":"Cylinder:007_Cylinder:073.004"
		},
		{
			"mesh":8,
			"name":"defaultMaterial.001",
			"rotation":[
				-0.70710688829422,
				0,
				0,
				0.7071066498756409
			]
		},
		{
			"children":[
				14
			],
			"name":"Cylinder:049_Cylinder:074.004"
		},
		{
			"mesh":9,
			"name":"defaultMaterial.004",
			"rotation":[
				-0.70710688829422,
				0,
				0,
				0.7071066498756409
			]
		},
		{
			"children":[
				16
			],
			"name":"Cylinder_Cylinder:072.004"
		},
		{
			"mesh":10,
			"name":"defaultMaterial.009",
			"rotation":[
				-0.70710688829422,
				0,
				0,
				0.7071066498756409
			]
		},
		{
			"children":[
				18
			],
			"name":"glass_Cylinder:067.004"
		},
		{
			"mesh":11,
			"name":"defaultMaterial.005",
			"rotation":[
				-0.70710688829422,
				0,
				0,
				0.7071066498756409
			]
		},
		{
			"children":[
				20
			],
			"name":"watch-frame"
		},
		{
			"children":[
				4,
				6,
				8,
				10,
				12,
				13,
				15,
				17,
				19,
				21
			],
			"name":"Collada visual scene group",
			"rotation":[
				0.70710688829422,
				0,
				0,
				0.7071066498756409
			]
		},
		{
			"mesh":12,
			"name":"Circle.002",
			"rotation":[
				-0.6036490797996521,
				-0.3682497441768646,
				0.3682496249675751,
				0.6036490201950073
			],
			"scale":[
				0.019781487062573433,
				0.019781487062573433,
				0.019781487062573433
			],
			"translation":[
				0.0001711891673039645,
				0.003766160923987627,
				0.0527055524289608
			]
		}
	],
	"animations":[
		{
			"channels":[
				{
					"sampler":0,
					"target":{
						"node":22,
						"path":"translation"
					}
				},
				{
					"sampler":1,
					"target":{
						"node":22,
						"path":"rotation"
					}
				}
			],
			"name":"Collada visual scene groupAction.003",
			"samplers":[
				{
					"input":56,
					"interpolation":"STEP",
					"output":57
				},
				{
					"input":56,
					"interpolation":"STEP",
					"output":58
				}
			]
		},
		{
			"channels":[
				{
					"sampler":0,
					"target":{
						"node":4,
						"path":"translation"
					}
				},
				{
					"sampler":1,
					"target":{
						"node":4,
						"path":"rotation"
					}
				}
			],
			"name":"Cube:003_Cube:009.004Action.003",
			"samplers":[
				{
					"input":56,
					"interpolation":"STEP",
					"output":59
				},
				{
					"input":56,
					"interpolation":"STEP",
					"output":60
				}
			]
		},
		{
			"channels":[
				{
					"sampler":0,
					"target":{
						"node":0,
						"path":"translation"
					}
				},
				{
					"sampler":1,
					"target":{
						"node":0,
						"path":"rotation"
					}
				}
			],
			"name":"defaultMaterial.003Action.006",
			"samplers":[
				{
					"input":61,
					"interpolation":"LINEAR",
					"output":62
				},
				{
					"input":56,
					"interpolation":"STEP",
					"output":63
				}
			]
		},
		{
			"channels":[
				{
					"sampler":0,
					"target":{
						"node":1,
						"path":"translation"
					}
				},
				{
					"sampler":1,
					"target":{
						"node":1,
						"path":"rotation"
					}
				}
			],
			"name":"defaultMaterial.056Action.002",
			"samplers":[
				{
					"input":61,
					"interpolation":"LINEAR",
					"output":64
				},
				{
					"input":56,
					"interpolation":"STEP",
					"output":65
				}
			]
		},
		{
			"channels":[
				{
					"sampler":0,
					"target":{
						"node":2,
						"path":"translation"
					}
				},
				{
					"sampler":1,
					"target":{
						"node":2,
						"path":"rotation"
					}
				}
			],
			"name":"defaultMaterial.057Action.002",
			"samplers":[
				{
					"input":61,
					"interpolation":"LINEAR",
					"output":66
				},
				{
					"input":56,
					"interpolation":"STEP",
					"output":67
				}
			]
		},
		{
			"channels":[
				{
					"sampler":0,
					"target":{
						"node":3,
						"path":"translation"
					}
				},
				{
					"sampler":1,
					"target":{
						"node":3,
						"path":"rotation"
					}
				}
			],
			"name":"defaultMaterial.058Action.002",
			"samplers":[
				{
					"input":61,
					"interpolation":"LINEAR",
					"output":68
				},
				{
					"input":56,
					"interpolation":"STEP",
					"output":69
				}
			]
		},
		{
			"channels":[
				{
					"sampler":0,
					"target":{
						"node":6,
						"path":"translation"
					}
				},
				{
					"sampler":1,
					"target":{
						"node":6,
						"path":"rotation"
					}
				}
			],
			"name":"Cylinder:000_Cylinder:068.004Action.003",
			"samplers":[
				{
					"input":56,
					"interpolation":"STEP",
					"output":70
				},
				{
					"input":56,
					"interpolation":"STEP",
					"output":71
				}
			]
		},
		{
			"channels":[
				{
					"sampler":0,
					"target":{
						"node":5,
						"path":"translation"
					}
				},
				{
					"sampler":1,
					"target":{
						"node":5,
						"path":"rotation"
					}
				}
			],
			"name":"defaultMaterial.008Action.003",
			"samplers":[
				{
					"input":61,
					"interpolation":"LINEAR",
					"output":72
				},
				{
					"input":56,
					"interpolation":"STEP",
					"output":73
				}
			]
		},
		{
			"channels":[
				{
					"sampler":0,
					"target":{
						"node":8,
						"path":"translation"
					}
				},
				{
					"sampler":1,
					"target":{
						"node":8,
						"path":"rotation"
					}
				}
			],
			"name":"Cylinder:002_Cylinder:069.004Action.003",
			"samplers":[
				{
					"input":56,
					"interpolation":"STEP",
					"output":74
				},
				{
					"input":56,
					"interpolation":"STEP",
					"output":75
				}
			]
		},
		{
			"channels":[
				{
					"sampler":0,
					"target":{
						"node":7,
						"path":"translation"
					}
				},
				{
					"sampler":1,
					"target":{
						"node":7,
						"path":"rotation"
					}
				}
			],
			"name":"defaultMaterial.007Action.003",
			"samplers":[
				{
					"input":61,
					"interpolation":"LINEAR",
					"output":76
				},
				{
					"input":56,
					"interpolation":"STEP",
					"output":77
				}
			]
		},
		{
			"channels":[
				{
					"sampler":0,
					"target":{
						"node":10,
						"path":"translation"
					}
				},
				{
					"sampler":1,
					"target":{
						"node":10,
						"path":"rotation"
					}
				}
			],
			"name":"Cylinder:003_Cylinder:070.004Action.003",
			"samplers":[
				{
					"input":56,
					"interpolation":"STEP",
					"output":78
				},
				{
					"input":56,
					"interpolation":"STEP",
					"output":79
				}
			]
		},
		{
			"channels":[
				{
					"sampler":0,
					"target":{
						"node":9,
						"path":"translation"
					}
				},
				{
					"sampler":1,
					"target":{
						"node":9,
						"path":"rotation"
					}
				}
			],
			"name":"defaultMaterial.006Action.003",
			"samplers":[
				{
					"input":56,
					"interpolation":"STEP",
					"output":80
				},
				{
					"input":56,
					"interpolation":"STEP",
					"output":81
				}
			]
		},
		{
			"channels":[
				{
					"sampler":0,
					"target":{
						"node":12,
						"path":"translation"
					}
				},
				{
					"sampler":1,
					"target":{
						"node":12,
						"path":"rotation"
					}
				}
			],
			"name":"Cylinder:006_Cylinder:001.004Action.003",
			"samplers":[
				{
					"input":56,
					"interpolation":"STEP",
					"output":82
				},
				{
					"input":56,
					"interpolation":"STEP",
					"output":83
				}
			]
		},
		{
			"channels":[
				{
					"sampler":0,
					"target":{
						"node":11,
						"path":"translation"
					}
				},
				{
					"sampler":1,
					"target":{
						"node":11,
						"path":"rotation"
					}
				}
			],
			"name":"defaultMaterialAction.003",
			"samplers":[
				{
					"input":61,
					"interpolation":"LINEAR",
					"output":84
				},
				{
					"input":56,
					"interpolation":"STEP",
					"output":85
				}
			]
		},
		{
			"channels":[
				{
					"sampler":0,
					"target":{
						"node":13,
						"path":"translation"
					}
				},
				{
					"sampler":1,
					"target":{
						"node":13,
						"path":"rotation"
					}
				}
			],
			"name":"Cylinder:007_Cylinder:073.004Action.003",
			"samplers":[
				{
					"input":56,
					"interpolation":"STEP",
					"output":86
				},
				{
					"input":56,
					"interpolation":"STEP",
					"output":87
				}
			]
		},
		{
			"channels":[
				{
					"sampler":0,
					"target":{
						"node":15,
						"path":"translation"
					}
				},
				{
					"sampler":1,
					"target":{
						"node":15,
						"path":"rotation"
					}
				}
			],
			"name":"Cylinder:049_Cylinder:074.004Action.003",
			"samplers":[
				{
					"input":56,
					"interpolation":"STEP",
					"output":88
				},
				{
					"input":56,
					"interpolation":"STEP",
					"output":89
				}
			]
		},
		{
			"channels":[
				{
					"sampler":0,
					"target":{
						"node":14,
						"path":"translation"
					}
				},
				{
					"sampler":1,
					"target":{
						"node":14,
						"path":"rotation"
					}
				}
			],
			"name":"defaultMaterial.001Action.003",
			"samplers":[
				{
					"input":61,
					"interpolation":"LINEAR",
					"output":90
				},
				{
					"input":56,
					"interpolation":"STEP",
					"output":91
				}
			]
		},
		{
			"channels":[
				{
					"sampler":0,
					"target":{
						"node":17,
						"path":"translation"
					}
				},
				{
					"sampler":1,
					"target":{
						"node":17,
						"path":"rotation"
					}
				}
			],
			"name":"Cylinder_Cylinder:072.004Action.003",
			"samplers":[
				{
					"input":56,
					"interpolation":"STEP",
					"output":92
				},
				{
					"input":56,
					"interpolation":"STEP",
					"output":93
				}
			]
		},
		{
			"channels":[
				{
					"sampler":0,
					"target":{
						"node":16,
						"path":"translation"
					}
				},
				{
					"sampler":1,
					"target":{
						"node":16,
						"path":"rotation"
					}
				}
			],
			"name":"defaultMaterial.004Action.003",
			"samplers":[
				{
					"input":61,
					"interpolation":"LINEAR",
					"output":94
				},
				{
					"input":56,
					"interpolation":"STEP",
					"output":95
				}
			]
		},
		{
			"channels":[
				{
					"sampler":0,
					"target":{
						"node":19,
						"path":"translation"
					}
				},
				{
					"sampler":1,
					"target":{
						"node":19,
						"path":"rotation"
					}
				}
			],
			"name":"glass_Cylinder:067.004Action.003",
			"samplers":[
				{
					"input":56,
					"interpolation":"STEP",
					"output":96
				},
				{
					"input":56,
					"interpolation":"STEP",
					"output":97
				}
			]
		},
		{
			"channels":[
				{
					"sampler":0,
					"target":{
						"node":18,
						"path":"translation"
					}
				},
				{
					"sampler":1,
					"target":{
						"node":18,
						"path":"rotation"
					}
				}
			],
			"name":"defaultMaterial.009Action.003",
			"samplers":[
				{
					"input":61,
					"interpolation":"LINEAR",
					"output":98
				},
				{
					"input":56,
					"interpolation":"STEP",
					"output":99
				}
			]
		},
		{
			"channels":[
				{
					"sampler":0,
					"target":{
						"node":21,
						"path":"translation"
					}
				},
				{
					"sampler":1,
					"target":{
						"node":21,
						"path":"rotation"
					}
				}
			],
			"name":"watch-frameAction",
			"samplers":[
				{
					"input":56,
					"interpolation":"STEP",
					"output":100
				},
				{
					"input":56,
					"interpolation":"STEP",
					"output":101
				}
			]
		},
		{
			"channels":[
				{
					"sampler":0,
					"target":{
						"node":20,
						"path":"translation"
					}
				},
				{
					"sampler":1,
					"target":{
						"node":20,
						"path":"rotation"
					}
				}
			],
			"name":"defaultMaterial.005Action.003",
			"samplers":[
				{
					"input":56,
					"interpolation":"STEP",
					"output":102
				},
				{
					"input":56,
					"interpolation":"STEP",
					"output":103
				}
			]
		},
		{
			"channels":[
				{
					"sampler":0,
					"target":{
						"node":23,
						"path":"translation"
					}
				},
				{
					"sampler":1,
					"target":{
						"node":23,
						"path":"rotation"
					}
				}
			],
			"name":"Circle.002Action.002",
			"samplers":[
				{
					"input":56,
					"interpolation":"STEP",
					"output":104
				},
				{
					"input":56,
					"interpolation":"STEP",
					"output":105
				}
			]
		}
	],
	"materials":[
		{
			"doubleSided":true,
			"extensions":{
				"KHR_materials_clearcoat":{
					"clearcoatFactor":0.009999999776482582
				}
			},
			"name":"metal",
			"pbrMetallicRoughness":{
				"baseColorFactor":[
					0.39203035831451416,
					0.39203035831451416,
					0.39203035831451416,
					1
				],
				"roughnessFactor":0.10000000149011612
			}
		},
		{
			"doubleSided":true,
			"name":"blue",
			"pbrMetallicRoughness":{
				"baseColorFactor":[
					0,
					0.004318544641137123,
					0.5325539112091064,
					1
				],
				"metallicFactor":0.16091954708099365,
				"roughnessFactor":0
			}
		},
		{
			"alphaMode":"BLEND",
			"doubleSided":true,
			"name":"Glass",
			"pbrMetallicRoughness":{
				"baseColorFactor":[
					0.800000011920929,
					0.800000011920929,
					0.800000011920929,
					0.11140581965446472
				],
				"metallicFactor":0,
				"roughnessFactor":0.11954021453857422
			}
		},
		{
			"doubleSided":true,
			"name":"Material.001",
			"pbrMetallicRoughness":{
				"baseColorTexture":{
					"index":0
				},
				"metallicFactor":0,
				"roughnessFactor":0.5
			}
		}
	],
	"meshes":[
		{
			"name":"defaultMaterial.003",
			"primitives":[
				{
					"attributes":{
						"POSITION":0,
						"NORMAL":1,
						"TEXCOORD_0":2
					},
					"indices":3,
					"material":0
				}
			]
		},
		{
			"name":"defaultMaterial.056",
			"primitives":[
				{
					"attributes":{
						"POSITION":4,
						"NORMAL":5,
						"TEXCOORD_0":6
					},
					"indices":7,
					"material":0
				}
			]
		},
		{
			"name":"defaultMaterial.057",
			"primitives":[
				{
					"attributes":{
						"POSITION":8,
						"NORMAL":9,
						"TEXCOORD_0":10
					},
					"indices":11,
					"material":0
				}
			]
		},
		{
			"name":"defaultMaterial.058",
			"primitives":[
				{
					"attributes":{
						"POSITION":12,
						"NORMAL":13,
						"TEXCOORD_0":14
					},
					"indices":15,
					"material":0
				}
			]
		},
		{
			"name":"defaultMaterial.008",
			"primitives":[
				{
					"attributes":{
						"POSITION":16,
						"NORMAL":17,
						"TEXCOORD_0":18
					},
					"indices":19,
					"material":0
				}
			]
		},
		{
			"name":"defaultMaterial.007",
			"primitives":[
				{
					"attributes":{
						"POSITION":20,
						"NORMAL":21,
						"TEXCOORD_0":22
					},
					"indices":23,
					"material":0
				}
			]
		},
		{
			"name":"defaultMaterial.006",
			"primitives":[
				{
					"attributes":{
						"POSITION":24,
						"NORMAL":25,
						"TEXCOORD_0":26
					},
					"indices":27,
					"material":0
				}
			]
		},
		{
			"name":"defaultMaterial",
			"primitives":[
				{
					"attributes":{
						"POSITION":28,
						"NORMAL":29,
						"TEXCOORD_0":30
					},
					"indices":31,
					"material":1
				},
				{
					"attributes":{
						"POSITION":32,
						"NORMAL":33,
						"TEXCOORD_0":34
					},
					"indices":35,
					"material":0
				}
			]
		},
		{
			"name":"defaultMaterial.001",
			"primitives":[
				{
					"attributes":{
						"POSITION":36,
						"NORMAL":37,
						"TEXCOORD_0":38
					},
					"indices":39,
					"material":0
				}
			]
		},
		{
			"name":"defaultMaterial.004",
			"primitives":[
				{
					"attributes":{
						"POSITION":40,
						"NORMAL":41,
						"TEXCOORD_0":42
					},
					"indices":43,
					"material":0
				}
			]
		},
		{
			"name":"defaultMaterial.009",
			"primitives":[
				{
					"attributes":{
						"POSITION":44,
						"NORMAL":45,
						"TEXCOORD_0":46
					},
					"indices":47,
					"material":2
				}
			]
		},
		{
			"name":"defaultMaterial.005",
			"primitives":[
				{
					"attributes":{
						"POSITION":48,
						"NORMAL":49,
						"TEXCOORD_0":50
					},
					"indices":51,
					"material":0
				}
			]
		},
		{
			"name":"Circle.002",
			"primitives":[
				{
					"attributes":{
						"POSITION":52,
						"NORMAL":53,
						"TEXCOORD_0":54
					},
					"indices":55,
					"material":3
				}
			]
		}
	],
	"textures":[
		{
			"sampler":0,
			"source":0
		}
	],
	"images":[
		{
			"mimeType":"image/png",
			"name":"watch-in2.png",
			"uri":"textures/watch-in2_png.png"
		}
	],
	"accessors":[
		{
			"bufferView":0,
			"componentType":5126,
			"count":577,
			"max":[
				-0.020158598199486732,
				-0.0059434897266328335,
				0.049849096685647964
			],
			"min":[
				-0.027500877156853676,
				-0.0151740163564682,
				0.04401369020342827
			],
			"type":"VEC3"
		},
		{
			"bufferView":1,
			"componentType":5126,
			"count":577,
			"type":"VEC3"
		},
		{
			"bufferView":2,
			"componentType":5126,
			"count":577,
			"type":"VEC2"
		},
		{
			"bufferView":3,
			"componentType":5123,
			"count":2928,
			"type":"SCALAR"
		},
		{
			"bufferView":4,
			"componentType":5126,
			"count":577,
			"max":[
				0.0276755690574646,
				0.02228948473930359,
				0.04984911158680916
			],
			"min":[
				0.020333286374807358,
				0.013057616539299488,
				0.04401369020342827
			],
			"type":"VEC3"
		},
		{
			"bufferView":5,
			"componentType":5126,
			"count":577,
			"type":"VEC3"
		},
		{
			"bufferView":6,
			"componentType":5126,
			"count":577,
			"type":"VEC2"
		},
		{
			"bufferView":7,
			"componentType":5123,
			"count":2928,
			"type":"SCALAR"
		},
		{
			"bufferView":8,
			"componentType":5126,
			"count":576,
			"max":[
				0.0276755690574646,
				-0.0059434897266328335,
				0.049849096685647964
			],
			"min":[
				0.020333286374807358,
				-0.0151740163564682,
				0.04401369020342827
			],
			"type":"VEC3"
		},
		{
			"bufferView":9,
			"componentType":5126,
			"count":576,
			"type":"VEC3"
		},
		{
			"bufferView":10,
			"componentType":5126,
			"count":576,
			"type":"VEC2"
		},
		{
			"bufferView":11,
			"componentType":5123,
			"count":2928,
			"type":"SCALAR"
		},
		{
			"bufferView":12,
			"componentType":5126,
			"count":577,
			"max":[
				-0.020158598199486732,
				0.02228948473930359,
				0.04984911158680916
			],
			"min":[
				-0.027500877156853676,
				0.013057616539299488,
				0.04401369020342827
			],
			"type":"VEC3"
		},
		{
			"bufferView":13,
			"componentType":5126,
			"count":577,
			"type":"VEC3"
		},
		{
			"bufferView":14,
			"componentType":5126,
			"count":577,
			"type":"VEC2"
		},
		{
			"bufferView":15,
			"componentType":5123,
			"count":2928,
			"type":"SCALAR"
		},
		{
			"bufferView":16,
			"componentType":5126,
			"count":6528,
			"max":[
				0.02530192770063877,
				0.02877165749669075,
				0.05532315373420715
			],
			"min":[
				-0.025127237662672997,
				-0.021657530218362808,
				0.05388161540031433
			],
			"type":"VEC3"
		},
		{
			"bufferView":17,
			"componentType":5126,
			"count":6528,
			"type":"VEC3"
		},
		{
			"bufferView":18,
			"componentType":5126,
			"count":6528,
			"type":"VEC2"
		},
		{
			"bufferView":19,
			"componentType":5123,
			"count":34560,
			"type":"SCALAR"
		},
		{
			"bufferView":20,
			"componentType":5126,
			"count":6184,
			"max":[
				0.02726217918097973,
				0.03062254562973976,
				0.054729726165533066
			],
			"min":[
				-0.027087491005659103,
				-0.023508436977863312,
				0.05143196880817413
			],
			"type":"VEC3"
		},
		{
			"bufferView":21,
			"componentType":5126,
			"count":6184,
			"type":"VEC3"
		},
		{
			"bufferView":22,
			"componentType":5126,
			"count":6184,
			"type":"VEC2"
		},
		{
			"bufferView":23,
			"componentType":5123,
			"count":34680,
			"type":"SCALAR"
		},
		{
			"bufferView":24,
			"componentType":5126,
			"count":2068,
			"max":[
				0.02332700602710247,
				0.02690473198890686,
				0.054736409336328506
			],
			"min":[
				-0.023152315989136696,
				-0.019573263823986053,
				0.05204538255929947
			],
			"type":"VEC3"
		},
		{
			"bufferView":25,
			"componentType":5126,
			"count":2068,
			"type":"VEC3"
		},
		{
			"bufferView":26,
			"componentType":5126,
			"count":2068,
			"type":"VEC2"
		},
		{
			"bufferView":27,
			"componentType":5123,
			"count":11328,
			"type":"SCALAR"
		},
		{
			"bufferView":28,
			"componentType":5126,
			"count":337,
			"max":[
				0.03330829367041588,
				0.006374084856361151,
				0.05003979057073593
			],
			"min":[
				0.03155606612563133,
				0.0007587076397612691,
				0.04442441463470459
			],
			"type":"VEC3"
		},
		{
			"bufferView":29,
			"componentType":5126,
			"count":337,
			"type":"VEC3"
		},
		{
			"bufferView":30,
			"componentType":5126,
			"count":337,
			"type":"VEC2"
		},
		{
			"bufferView":31,
			"componentType":5123,
			"count":1944,
			"type":"SCALAR"
		},
		{
			"bufferView":32,
			"componentType":5126,
			"count":2950,
			"max":[
				0.03209613636136055,
				0.0077262576669454575,
				0.051365308463573456
			],
			"min":[
				0.02690746821463108,
				-0.0005107902688905597,
				0.042908214032649994
			],
			"type":"VEC3"
		},
		{
			"bufferView":33,
			"componentType":5126,
			"count":2950,
			"type":"VEC3"
		},
		{
			"bufferView":34,
			"componentType":5126,
			"count":2950,
			"type":"VEC2"
		},
		{
			"bufferView":35,
			"componentType":5123,
			"count":16632,
			"type":"SCALAR"
		},
		{
			"bufferView":36,
			"componentType":5126,
			"count":770,
			"max":[
				0.019601192325353622,
				0.02307090535759926,
				0.04117999225854874
			],
			"min":[
				-0.019426504150032997,
				-0.01595546305179596,
				0.04041454568505287
			],
			"type":"VEC3"
		},
		{
			"bufferView":37,
			"componentType":5126,
			"count":770,
			"type":"VEC3"
		},
		{
			"bufferView":38,
			"componentType":5126,
			"count":770,
			"type":"VEC2"
		},
		{
			"bufferView":39,
			"componentType":5123,
			"count":4224,
			"type":"SCALAR"
		},
		{
			"bufferView":40,
			"componentType":5126,
			"count":3652,
			"max":[
				0.02427913062274456,
				0.02774885483086109,
				0.043254926800727844
			],
			"min":[
				-0.024104440584778786,
				-0.020633399486541748,
				0.04079326242208481
			],
			"type":"VEC3"
		},
		{
			"bufferView":41,
			"componentType":5126,
			"count":3652,
			"type":"VEC3"
		},
		{
			"bufferView":42,
			"componentType":5126,
			"count":3652,
			"type":"VEC2"
		},
		{
			"bufferView":43,
			"componentType":5123,
			"count":19584,
			"type":"SCALAR"
		},
		{
			"bufferView":44,
			"componentType":5126,
			"count":1154,
			"max":[
				0.022924287244677544,
				0.02639801800251007,
				0.05602189153432846
			],
			"min":[
				-0.02274959906935692,
				-0.01923455111682415,
				0.05496975779533386
			],
			"type":"VEC3"
		},
		{
			"bufferView":45,
			"componentType":5126,
			"count":1154,
			"type":"VEC3"
		},
		{
			"bufferView":46,
			"componentType":5126,
			"count":1154,
			"type":"VEC2"
		},
		{
			"bufferView":47,
			"componentType":5123,
			"count":6528,
			"type":"SCALAR"
		},
		{
			"bufferView":48,
			"componentType":5126,
			"count":85700,
			"max":[
				0.030407916754484177,
				0.05770072340965271,
				0.05304818972945213
			],
			"min":[
				-0.028108954429626465,
				-0.04961179196834564,
				-0.05180533602833748
			],
			"type":"VEC3"
		},
		{
			"bufferView":49,
			"componentType":5126,
			"count":85700,
			"type":"VEC3"
		},
		{
			"bufferView":50,
			"componentType":5126,
			"count":85700,
			"type":"VEC2"
		},
		{
			"bufferView":51,
			"componentType":5125,
			"count":438768,
			"type":"SCALAR"
		},
		{
			"bufferView":52,
			"componentType":5126,
			"count":65,
			"max":[
				1,
				2.9778502051908996e-23,
				1
			],
			"min":[
				-1,
				-7.910408434464995e-24,
				-1
			],
			"type":"VEC3"
		},
		{
			"bufferView":53,
			"componentType":5126,
			"count":65,
			"type":"VEC3"
		},
		{
			"bufferView":54,
			"componentType":5126,
			"count":65,
			"type":"VEC2"
		},
		{
			"bufferView":55,
			"componentType":5123,
			"count":288,
			"type":"SCALAR"
		},
		{
			"bufferView":56,
			"componentType":5126,
			"count":2,
			"max":[
				2.5
			],
			"min":[
				0.041666666666666664
			],
			"type":"SCALAR"
		},
		{
			"bufferView":57,
			"componentType":5126,
			"count":2,
			"type":"VEC3"
		},
		{
			"bufferView":58,
			"componentType":5126,
			"count":2,
			"type":"VEC4"
		},
		{
			"bufferView":59,
			"componentType":5126,
			"count":2,
			"type":"VEC3"
		},
		{
			"bufferView":60,
			"componentType":5126,
			"count":2,
			"type":"VEC4"
		},
		{
			"bufferView":61,
			"componentType":5126,
			"count":60,
			"max":[
				2.5
			],
			"min":[
				0.041666666666666664
			],
			"type":"SCALAR"
		},
		{
			"bufferView":62,
			"componentType":5126,
			"count":60,
			"type":"VEC3"
		},
		{
			"bufferView":63,
			"componentType":5126,
			"count":2,
			"type":"VEC4"
		},
		{
			"bufferView":64,
			"componentType":5126,
			"count":60,
			"type":"VEC3"
		},
		{
			"bufferView":65,
			"componentType":5126,
			"count":2,
			"type":"VEC4"
		},
		{
			"bufferView":66,
			"componentType":5126,
			"count":60,
			"type":"VEC3"
		},
		{
			"bufferView":67,
			"componentType":5126,
			"count":2,
			"type":"VEC4"
		},
		{
			"bufferView":68,
			"componentType":5126,
			"count":60,
			"type":"VEC3"
		},
		{
			"bufferView":69,
			"componentType":5126,
			"count":2,
			"type":"VEC4"
		},
		{
			"bufferView":70,
			"componentType":5126,
			"count":2,
			"type":"VEC3"
		},
		{
			"bufferView":71,
			"componentType":5126,
			"count":2,
			"type":"VEC4"
		},
		{
			"bufferView":72,
			"componentType":5126,
			"count":60,
			"type":"VEC3"
		},
		{
			"bufferView":73,
			"componentType":5126,
			"count":2,
			"type":"VEC4"
		},
		{
			"bufferView":74,
			"componentType":5126,
			"count":2,
			"type":"VEC3"
		},
		{
			"bufferView":75,
			"componentType":5126,
			"count":2,
			"type":"VEC4"
		},
		{
			"bufferView":76,
			"componentType":5126,
			"count":60,
			"type":"VEC3"
		},
		{
			"bufferView":77,
			"componentType":5126,
			"count":2,
			"type":"VEC4"
		},
		{
			"bufferView":78,
			"componentType":5126,
			"count":2,
			"type":"VEC3"
		},
		{
			"bufferView":79,
			"componentType":5126,
			"count":2,
			"type":"VEC4"
		},
		{
			"bufferView":80,
			"componentType":5126,
			"count":2,
			"type":"VEC3"
		},
		{
			"bufferView":81,
			"componentType":5126,
			"count":2,
			"type":"VEC4"
		},
		{
			"bufferView":82,
			"componentType":5126,
			"count":2,
			"type":"VEC3"
		},
		{
			"bufferView":83,
			"componentType":5126,
			"count":2,
			"type":"VEC4"
		},
		{
			"bufferView":84,
			"componentType":5126,
			"count":60,
			"type":"VEC3"
		},
		{
			"bufferView":85,
			"componentType":5126,
			"count":2,
			"type":"VEC4"
		},
		{
			"bufferView":86,
			"componentType":5126,
			"count":2,
			"type":"VEC3"
		},
		{
			"bufferView":87,
			"componentType":5126,
			"count":2,
			"type":"VEC4"
		},
		{
			"bufferView":88,
			"componentType":5126,
			"count":2,
			"type":"VEC3"
		},
		{
			"bufferView":89,
			"componentType":5126,
			"count":2,
			"type":"VEC4"
		},
		{
			"bufferView":90,
			"componentType":5126,
			"count":60,
			"type":"VEC3"
		},
		{
			"bufferView":91,
			"componentType":5126,
			"count":2,
			"type":"VEC4"
		},
		{
			"bufferView":92,
			"componentType":5126,
			"count":2,
			"type":"VEC3"
		},
		{
			"bufferView":93,
			"componentType":5126,
			"count":2,
			"type":"VEC4"
		},
		{
			"bufferView":94,
			"componentType":5126,
			"count":60,
			"type":"VEC3"
		},
		{
			"bufferView":95,
			"componentType":5126,
			"count":2,
			"type":"VEC4"
		},
		{
			"bufferView":96,
			"componentType":5126,
			"count":2,
			"type":"VEC3"
		},
		{
			"bufferView":97,
			"componentType":5126,
			"count":2,
			"type":"VEC4"
		},
		{
			"bufferView":98,
			"componentType":5126,
			"count":60,
			"type":"VEC3"
		},
		{
			"bufferView":99,
			"componentType":5126,
			"count":2,
			"type":"VEC4"
		},
		{
			"bufferView":100,
			"componentType":5126,
			"count":2,
			"type":"VEC3"
		},
		{
			"bufferView":101,
			"componentType":5126,
			"count":2,
			"type":"VEC4"
		},
		{
			"bufferView":102,
			"componentType":5126,
			"count":2,
			"type":"VEC3"
		},
		{
			"bufferView":103,
			"componentType":5126,
			"count":2,
			"type":"VEC4"
		},
		{
			"bufferView":104,
			"componentType":5126,
			"count":2,
			"type":"VEC3"
		},
		{
			"bufferView":105,
			"componentType":5126,
			"count":2,
			"type":"VEC4"
		}
	],
	"bufferViews":[
		{
			"buffer":0,
			"byteLength":6924,
			"byteOffset":0,
			"target":34962
		},
		{
			"buffer":0,
			"byteLength":6924,
			"byteOffset":6924,
			"target":34962
		},
		{
			"buffer":0,
			"byteLength":4616,
			"byteOffset":13848,
			"target":34962
		},
		{
			"buffer":0,
			"byteLength":5856,
			"byteOffset":18464,
			"target":34963
		},
		{
			"buffer":0,
			"byteLength":6924,
			"byteOffset":24320,
			"target":34962
		},
		{
			"buffer":0,
			"byteLength":6924,
			"byteOffset":31244,
			"target":34962
		},
		{
			"buffer":0,
			"byteLength":4616,
			"byteOffset":38168,
			"target":34962
		},
		{
			"buffer":0,
			"byteLength":5856,
			"byteOffset":42784,
			"target":34963
		},
		{
			"buffer":0,
			"byteLength":6912,
			"byteOffset":48640,
			"target":34962
		},
		{
			"buffer":0,
			"byteLength":6912,
			"byteOffset":55552,
			"target":34962
		},
		{
			"buffer":0,
			"byteLength":4608,
			"byteOffset":62464,
			"target":34962
		},
		{
			"buffer":0,
			"byteLength":5856,
			"byteOffset":67072,
			"target":34963
		},
		{
			"buffer":0,
			"byteLength":6924,
			"byteOffset":72928,
			"target":34962
		},
		{
			"buffer":0,
			"byteLength":6924,
			"byteOffset":79852,
			"target":34962
		},
		{
			"buffer":0,
			"byteLength":4616,
			"byteOffset":86776,
			"target":34962
		},
		{
			"buffer":0,
			"byteLength":5856,
			"byteOffset":91392,
			"target":34963
		},
		{
			"buffer":0,
			"byteLength":78336,
			"byteOffset":97248,
			"target":34962
		},
		{
			"buffer":0,
			"byteLength":78336,
			"byteOffset":175584,
			"target":34962
		},
		{
			"buffer":0,
			"byteLength":52224,
			"byteOffset":253920,
			"target":34962
		},
		{
			"buffer":0,
			"byteLength":69120,
			"byteOffset":306144,
			"target":34963
		},
		{
			"buffer":0,
			"byteLength":74208,
			"byteOffset":375264,
			"target":34962
		},
		{
			"buffer":0,
			"byteLength":74208,
			"byteOffset":449472,
			"target":34962
		},
		{
			"buffer":0,
			"byteLength":49472,
			"byteOffset":523680,
			"target":34962
		},
		{
			"buffer":0,
			"byteLength":69360,
			"byteOffset":573152,
			"target":34963
		},
		{
			"buffer":0,
			"byteLength":24816,
			"byteOffset":642512,
			"target":34962
		},
		{
			"buffer":0,
			"byteLength":24816,
			"byteOffset":667328,
			"target":34962
		},
		{
			"buffer":0,
			"byteLength":16544,
			"byteOffset":692144,
			"target":34962
		},
		{
			"buffer":0,
			"byteLength":22656,
			"byteOffset":708688,
			"target":34963
		},
		{
			"buffer":0,
			"byteLength":4044,
			"byteOffset":731344,
			"target":34962
		},
		{
			"buffer":0,
			"byteLength":4044,
			"byteOffset":735388,
			"target":34962
		},
		{
			"buffer":0,
			"byteLength":2696,
			"byteOffset":739432,
			"target":34962
		},
		{
			"buffer":0,
			"byteLength":3888,
			"byteOffset":742128,
			"target":34963
		},
		{
			"buffer":0,
			"byteLength":35400,
			"byteOffset":746016,
			"target":34962
		},
		{
			"buffer":0,
			"byteLength":35400,
			"byteOffset":781416,
			"target":34962
		},
		{
			"buffer":0,
			"byteLength":23600,
			"byteOffset":816816,
			"target":34962
		},
		{
			"buffer":0,
			"byteLength":33264,
			"byteOffset":840416,
			"target":34963
		},
		{
			"buffer":0,
			"byteLength":9240,
			"byteOffset":873680,
			"target":34962
		},
		{
			"buffer":0,
			"byteLength":9240,
			"byteOffset":882920,
			"target":34962
		},
		{
			"buffer":0,
			"byteLength":6160,
			"byteOffset":892160,
			"target":34962
		},
		{
			"buffer":0,
			"byteLength":8448,
			"byteOffset":898320,
			"target":34963
		},
		{
			"buffer":0,
			"byteLength":43824,
			"byteOffset":906768,
			"target":34962
		},
		{
			"buffer":0,
			"byteLength":43824,
			"byteOffset":950592,
			"target":34962
		},
		{
			"buffer":0,
			"byteLength":29216,
			"byteOffset":994416,
			"target":34962
		},
		{
			"buffer":0,
			"byteLength":39168,
			"byteOffset":1023632,
			"target":34963
		},
		{
			"buffer":0,
			"byteLength":13848,
			"byteOffset":1062800,
			"target":34962
		},
		{
			"buffer":0,
			"byteLength":13848,
			"byteOffset":1076648,
			"target":34962
		},
		{
			"buffer":0,
			"byteLength":9232,
			"byteOffset":1090496,
			"target":34962
		},
		{
			"buffer":0,
			"byteLength":13056,
			"byteOffset":1099728,
			"target":34963
		},
		{
			"buffer":0,
			"byteLength":1028400,
			"byteOffset":1112784,
			"target":34962
		},
		{
			"buffer":0,
			"byteLength":1028400,
			"byteOffset":2141184,
			"target":34962
		},
		{
			"buffer":0,
			"byteLength":685600,
			"byteOffset":3169584,
			"target":34962
		},
		{
			"buffer":0,
			"byteLength":1755072,
			"byteOffset":3855184,
			"target":34963
		},
		{
			"buffer":0,
			"byteLength":780,
			"byteOffset":5610256,
			"target":34962
		},
		{
			"buffer":0,
			"byteLength":780,
			"byteOffset":5611036,
			"target":34962
		},
		{
			"buffer":0,
			"byteLength":520,
			"byteOffset":5611816,
			"target":34962
		},
		{
			"buffer":0,
			"byteLength":576,
			"byteOffset":5612336,
			"target":34963
		},
		{
			"buffer":0,
			"byteLength":8,
			"byteOffset":5612912
		},
		{
			"buffer":0,
			"byteLength":24,
			"byteOffset":5612920
		},
		{
			"buffer":0,
			"byteLength":32,
			"byteOffset":5612944
		},
		{
			"buffer":0,
			"byteLength":24,
			"byteOffset":5612976
		},
		{
			"buffer":0,
			"byteLength":32,
			"byteOffset":5613000
		},
		{
			"buffer":0,
			"byteLength":240,
			"byteOffset":5613032
		},
		{
			"buffer":0,
			"byteLength":720,
			"byteOffset":5613272
		},
		{
			"buffer":0,
			"byteLength":32,
			"byteOffset":5613992
		},
		{
			"buffer":0,
			"byteLength":720,
			"byteOffset":5614024
		},
		{
			"buffer":0,
			"byteLength":32,
			"byteOffset":5614744
		},
		{
			"buffer":0,
			"byteLength":720,
			"byteOffset":5614776
		},
		{
			"buffer":0,
			"byteLength":32,
			"byteOffset":5615496
		},
		{
			"buffer":0,
			"byteLength":720,
			"byteOffset":5615528
		},
		{
			"buffer":0,
			"byteLength":32,
			"byteOffset":5616248
		},
		{
			"buffer":0,
			"byteLength":24,
			"byteOffset":5616280
		},
		{
			"buffer":0,
			"byteLength":32,
			"byteOffset":5616304
		},
		{
			"buffer":0,
			"byteLength":720,
			"byteOffset":5616336
		},
		{
			"buffer":0,
			"byteLength":32,
			"byteOffset":5617056
		},
		{
			"buffer":0,
			"byteLength":24,
			"byteOffset":5617088
		},
		{
			"buffer":0,
			"byteLength":32,
			"byteOffset":5617112
		},
		{
			"buffer":0,
			"byteLength":720,
			"byteOffset":5617144
		},
		{
			"buffer":0,
			"byteLength":32,
			"byteOffset":5617864
		},
		{
			"buffer":0,
			"byteLength":24,
			"byteOffset":5617896
		},
		{
			"buffer":0,
			"byteLength":32,
			"byteOffset":5617920
		},
		{
			"buffer":0,
			"byteLength":24,
			"byteOffset":5617952
		},
		{
			"buffer":0,
			"byteLength":32,
			"byteOffset":5617976
		},
		{
			"buffer":0,
			"byteLength":24,
			"byteOffset":5618008
		},
		{
			"buffer":0,
			"byteLength":32,
			"byteOffset":5618032
		},
		{
			"buffer":0,
			"byteLength":720,
			"byteOffset":5618064
		},
		{
			"buffer":0,
			"byteLength":32,
			"byteOffset":5618784
		},
		{
			"buffer":0,
			"byteLength":24,
			"byteOffset":5618816
		},
		{
			"buffer":0,
			"byteLength":32,
			"byteOffset":5618840
		},
		{
			"buffer":0,
			"byteLength":24,
			"byteOffset":5618872
		},
		{
			"buffer":0,
			"byteLength":32,
			"byteOffset":5618896
		},
		{
			"buffer":0,
			"byteLength":720,
			"byteOffset":5618928
		},
		{
			"buffer":0,
			"byteLength":32,
			"byteOffset":5619648
		},
		{
			"buffer":0,
			"byteLength":24,
			"byteOffset":5619680
		},
		{
			"buffer":0,
			"byteLength":32,
			"byteOffset":5619704
		},
		{
			"buffer":0,
			"byteLength":720,
			"byteOffset":5619736
		},
		{
			"buffer":0,
			"byteLength":32,
			"byteOffset":5620456
		},
		{
			"buffer":0,
			"byteLength":24,
			"byteOffset":5620488
		},
		{
			"buffer":0,
			"byteLength":32,
			"byteOffset":5620512
		},
		{
			"buffer":0,
			"byteLength":720,
			"byteOffset":5620544
		},
		{
			"buffer":0,
			"byteLength":32,
			"byteOffset":5621264
		},
		{
			"buffer":0,
			"byteLength":24,
			"byteOffset":5621296
		},
		{
			"buffer":0,
			"byteLength":32,
			"byteOffset":5621320
		},
		{
			"buffer":0,
			"byteLength":24,
			"byteOffset":5621352
		},
		{
			"buffer":0,
			"byteLength":32,
			"byteOffset":5621376
		},
		{
			"buffer":0,
			"byteLength":24,
			"byteOffset":5621408
		},
		{
			"buffer":0,
			"byteLength":32,
			"byteOffset":5621432
		}
	],
	"samplers":[
		{
			"magFilter":9729,
			"minFilter":9987
		}
	],
	"buffers":[
		{
			"byteLength":5621464,
			"uri":"watch2.bin"
		}
	]
}
